<?xml version="1.0" encoding="UTF-8"?>
<!DOCTYPE svg PUBLIC "-//W3C//DTD SVG 1.1//EN" "http://www.w3.org/Graphics/SVG/1.1/DTD/svg11.dtd">
<svg xmlns="http://www.w3.org/2000/svg" version="1.1" width="817px" height="257px" style="shape-rendering:geometricPrecision; text-rendering:geometricPrecision; image-rendering:optimizeQuality; fill-rule:evenodd; clip-rule:evenodd" xmlns:xlink="http://www.w3.org/1999/xlink">
<g><path style="opacity:0.969" fill="#212121" d="M 222.5,-0.5 C 235.167,-0.5 247.833,-0.5 260.5,-0.5C 261.321,2.5535 261.321,5.5535 260.5,8.5C 254.178,1.93296 246.511,-0.233706 237.5,2C 236.522,8.41018 236.189,14.9102 236.5,21.5C 240.936,21.7899 245.27,21.2899 249.5,20C 250.781,18.5913 251.781,17.0913 252.5,15.5C 253.488,20.6405 253.821,25.9738 253.5,31.5C 252.015,29.0664 250.348,26.7331 248.5,24.5C 244.366,23.5151 240.032,23.1818 235.5,23.5C 235.175,31.0191 235.508,38.3524 236.5,45.5C 243.866,46.959 251.199,46.7924 258.5,45C 260.639,42.5216 262.639,40.0216 264.5,37.5C 265.404,38.209 265.737,39.209 265.5,40.5C 265.167,43.1667 264.833,45.8333 264.5,48.5C 250.5,48.5 236.5,48.5 222.5,48.5C 223.167,47.8333 223.833,47.1667 224.5,46.5C 226.017,46.4894 227.184,45.8228 228,44.5C 229.365,30.9848 229.532,17.4848 228.5,4C 226.374,2.50715 224.374,1.00715 222.5,-0.5 Z"/></g>
<g><path style="opacity:0.969" fill="#262626" d="M 286.5,-0.5 C 293.167,-0.5 299.833,-0.5 306.5,-0.5C 305.426,1.2155 303.759,2.2155 301.5,2.5C 301.167,3.5 300.833,4.5 300.5,5.5C 304.222,16.609 308.222,27.609 312.5,38.5C 313.167,39.5 313.833,40.5 314.5,41.5C 313.833,44.1667 313.167,46.8333 312.5,49.5C 311.325,49.719 310.325,49.3857 309.5,48.5C 303.902,34.8733 298.402,21.2066 293,7.5C 291.633,3.98676 289.466,1.3201 286.5,-0.5 Z"/></g>
<g><path style="opacity:0.969" fill="#313131" d="M 319.5,-0.5 C 325.167,-0.5 330.833,-0.5 336.5,-0.5C 334.923,1.58366 333.09,3.58366 331,5.5C 328.997,10.8398 326.497,15.8398 323.5,20.5C 323.672,19.5084 323.338,18.8417 322.5,18.5C 323.726,14.3203 325.06,10.1536 326.5,6C 324.822,2.90181 322.489,0.735141 319.5,-0.5 Z"/></g>
<g><path style="opacity:0.969" fill="#212121" d="M 358.5,-0.5 C 371.167,-0.5 383.833,-0.5 396.5,-0.5C 397.321,2.5535 397.321,5.5535 396.5,8.5C 390.178,1.93296 382.511,-0.233706 373.5,2C 372.522,8.41018 372.189,14.9102 372.5,21.5C 376.936,21.7899 381.27,21.2899 385.5,20C 386.781,18.5913 387.781,17.0913 388.5,15.5C 389.488,20.6405 389.821,25.9738 389.5,31.5C 388.015,29.0664 386.348,26.7331 384.5,24.5C 380.366,23.5151 376.032,23.1818 371.5,23.5C 371.175,31.0191 371.508,38.3524 372.5,45.5C 379.866,46.959 387.199,46.7924 394.5,45C 396.639,42.5216 398.639,40.0216 400.5,37.5C 401.404,38.209 401.737,39.209 401.5,40.5C 401.167,43.1667 400.833,45.8333 400.5,48.5C 386.5,48.5 372.5,48.5 358.5,48.5C 359.167,47.8333 359.833,47.1667 360.5,46.5C 362.017,46.4894 363.184,45.8228 364,44.5C 365.365,30.9848 365.532,17.4848 364.5,4C 362.374,2.50715 360.374,1.00715 358.5,-0.5 Z"/></g>
<g><path style="opacity:0.969" fill="#242424" d="M 422.5,-0.5 C 426.833,-0.5 431.167,-0.5 435.5,-0.5C 446.871,11.5356 457.871,23.869 468.5,36.5C 468.56,37.0431 468.893,37.3764 469.5,37.5C 470.824,26.3404 470.824,15.3404 469.5,4.5C 466.876,3.04142 464.542,1.37475 462.5,-0.5C 468.167,-0.5 473.833,-0.5 479.5,-0.5C 478.144,1.26988 476.311,2.60321 474,3.5C 473.667,4.5 473.333,5.5 473,6.5C 472.667,19.5 472.333,32.5 472,45.5C 471.751,46.624 471.251,47.624 470.5,48.5C 460.179,38.0112 450.012,27.3445 440,16.5C 437.92,13.9348 436.087,11.2682 434.5,8.5C 434.44,7.95691 434.107,7.62358 433.5,7.5C 432.175,19.6602 432.175,31.6602 433.5,43.5C 435.099,45.309 437.099,46.6424 439.5,47.5C 434.167,48.8333 428.833,48.8333 423.5,47.5C 425.386,46.5937 427.22,45.5937 429,44.5C 430.586,31.8903 430.92,19.2237 430,6.5C 429.691,5.23409 429.191,4.06743 428.5,3C 425.981,2.41359 423.981,1.24693 422.5,-0.5 Z"/></g>
<g><path style="opacity:0.969" fill="#212121" d="M 502.5,-0.5 C 505.167,-0.5 507.833,-0.5 510.5,-0.5C 521.5,0.833333 532.5,0.833333 543.5,-0.5C 545.5,-0.5 547.5,-0.5 549.5,-0.5C 549.666,3.51383 549.499,7.51383 549,11.5C 547.64,8.26476 545.473,5.76476 542.5,4C 538.5,3.33333 534.5,3.33333 530.5,4C 529.874,4.75044 529.374,5.58377 529,6.5C 528.333,19.1667 528.333,31.8333 529,44.5C 531.052,45.7234 533.219,46.7234 535.5,47.5C 528.167,48.8333 520.833,48.8333 513.5,47.5C 515.465,46.7078 517.465,46.0412 519.5,45.5C 520.192,44.9747 520.692,44.3081 521,43.5C 521.499,38.5111 521.666,33.5111 521.5,28.5C 522.166,24.5139 522.499,20.3472 522.5,16C 522.491,11.4428 521.825,7.27617 520.5,3.5C 512.961,2.33836 506.961,4.67169 502.5,10.5C 501.596,9.79105 501.263,8.79105 501.5,7.5C 501.833,4.83333 502.167,2.16667 502.5,-0.5 Z"/></g>
<g><path style="opacity:0.259" fill="#a5a5a5" d="M 520.5,3.5 C 521.825,7.27617 522.491,11.4428 522.5,16C 522.499,20.3472 522.166,24.5139 521.5,28.5C 521.802,20.0817 521.469,11.7483 520.5,3.5 Z"/></g>
<g><path style="opacity:0.259" fill="#b6b6b6" d="M 434.5,8.5 C 433.505,19.988 433.172,31.6547 433.5,43.5C 432.175,31.6602 432.175,19.6602 433.5,7.5C 434.107,7.62358 434.44,7.95691 434.5,8.5 Z"/></g>
<g><path style="opacity:0.451" fill="#888888" d="M 501.5,7.5 C 501.263,8.79105 501.596,9.79105 502.5,10.5C 501.528,11.7514 500.861,11.418 500.5,9.5C 500.543,8.58362 500.876,7.91695 501.5,7.5 Z"/></g>
<g><path style="opacity:0.71" fill="#4d4d4d" d="M 252.5,15.5 C 252.56,14.9569 252.893,14.6236 253.5,14.5C 254.816,20.3204 254.816,25.9871 253.5,31.5C 253.821,25.9738 253.488,20.6405 252.5,15.5 Z"/></g>
<g><path style="opacity:0.71" fill="#4d4d4d" d="M 388.5,15.5 C 388.56,14.9569 388.893,14.6236 389.5,14.5C 390.816,20.3204 390.816,25.9871 389.5,31.5C 389.821,25.9738 389.488,20.6405 388.5,15.5 Z"/></g>
<g><path style="opacity:0.451" fill="#868686" d="M 248.5,24.5 C 244.5,24.5 240.5,24.5 236.5,24.5C 236.5,31.5 236.5,38.5 236.5,45.5C 235.508,38.3524 235.175,31.0191 235.5,23.5C 240.032,23.1818 244.366,23.5151 248.5,24.5 Z"/></g>
<g><path style="opacity:0.451" fill="#868686" d="M 384.5,24.5 C 380.5,24.5 376.5,24.5 372.5,24.5C 372.5,31.5 372.5,38.5 372.5,45.5C 371.508,38.3524 371.175,31.0191 371.5,23.5C 376.032,23.1818 380.366,23.5151 384.5,24.5 Z"/></g>
<g><path style="opacity:0.451" fill="#9a9a9a" d="M 469.5,4.5 C 470.824,15.3404 470.824,26.3404 469.5,37.5C 468.893,37.3764 468.56,37.0431 468.5,36.5C 469.494,26.0131 469.828,15.3464 469.5,4.5 Z"/></g>
<g><path style="opacity:0.451" fill="#a1a1a1" d="M 264.5,37.5 C 265.472,36.2486 266.139,36.582 266.5,38.5C 266.457,39.4164 266.124,40.0831 265.5,40.5C 265.737,39.209 265.404,38.209 264.5,37.5 Z"/></g>
<g><path style="opacity:0.451" fill="#a1a1a1" d="M 400.5,37.5 C 401.472,36.2486 402.139,36.582 402.5,38.5C 402.457,39.4164 402.124,40.0831 401.5,40.5C 401.737,39.209 401.404,38.209 400.5,37.5 Z"/></g>
<g><path style="opacity:0.969" fill="#575757" d="M 322.5,18.5 C 323.338,18.8417 323.672,19.5084 323.5,20.5C 321.068,27.8109 318.068,34.8109 314.5,41.5C 313.833,40.5 313.167,39.5 312.5,38.5C 316.019,31.9561 319.352,25.2895 322.5,18.5 Z"/></g>
<g><path style="opacity:0.451" fill="#959595" d="M 224.5,46.5 C 223.833,47.1667 223.167,47.8333 222.5,48.5C 221.957,48.44 221.624,48.1067 221.5,47.5C 222.325,46.6143 223.325,46.281 224.5,46.5 Z"/></g>
<g><path style="opacity:0.451" fill="#959595" d="M 360.5,46.5 C 359.833,47.1667 359.167,47.8333 358.5,48.5C 357.957,48.44 357.624,48.1067 357.5,47.5C 358.325,46.6143 359.325,46.281 360.5,46.5 Z"/></g>
<g><path style="opacity:1" fill="#131313" d="M 106.5,78.5 C 106.5,91.1667 106.5,103.833 106.5,116.5C 104.708,116.634 103.042,116.301 101.5,115.5C 97.2673,102.297 89.9339,91.2972 79.5,82.5C 79.0269,81.0937 78.0269,80.427 76.5,80.5C 58.6544,73.4331 43.4877,77.0998 31,91.5C 25.2096,102.069 25.043,112.736 30.5,123.5C 30.427,125.027 31.0937,126.027 32.5,126.5C 37.2595,131.382 42.5928,135.549 48.5,139C 63.609,146.416 78.609,153.916 93.5,161.5C 94.0347,163.446 95.368,164.446 97.5,164.5C 102.381,166.709 106.381,170.043 109.5,174.5C 109.427,176.027 110.094,177.027 111.5,177.5C 112.167,177.5 112.5,177.833 112.5,178.5C 112.427,180.027 113.094,181.027 114.5,181.5C 122.489,196.417 122.322,211.417 114,226.5C 103.213,243.143 88.0466,253.143 68.5,256.5C 58.8333,256.5 49.1667,256.5 39.5,256.5C 30.5513,255.115 21.5513,253.281 12.5,251C 6.22302,248.296 3.05635,243.463 3,236.5C 1.6884,226.031 0.521729,215.698 -0.5,205.5C -0.5,204.167 -0.5,202.833 -0.5,201.5C 1.60395,201.201 3.60395,201.534 5.5,202.5C 8.31382,210.124 11.6472,217.457 15.5,224.5C 15.427,226.027 16.0937,227.027 17.5,227.5C 17.427,229.027 18.0937,230.027 19.5,230.5C 20.5,230.833 21.1667,231.5 21.5,232.5C 22.5,235.5 24.5,237.5 27.5,238.5C 39.3504,248.548 53.017,252.214 68.5,249.5C 71.716,249.655 74.3826,248.655 76.5,246.5C 78.4561,245.508 80.4561,244.508 82.5,243.5C 84.0269,243.573 85.0269,242.906 85.5,241.5C 87.1667,239.167 89.1667,237.167 91.5,235.5C 92.9063,235.027 93.573,234.027 93.5,232.5C 102.671,211.674 97.6713,195.007 78.5,182.5C 78.0269,181.094 77.0269,180.427 75.5,180.5C 60.07,174.283 45.07,167.283 30.5,159.5C 30.0269,158.094 29.0269,157.427 27.5,157.5C 27.0269,156.094 26.0269,155.427 24.5,155.5C 21.9108,154.581 19.9108,152.914 18.5,150.5C 18.0269,149.094 17.0269,148.427 15.5,148.5C 5.46392,137.029 1.96392,123.696 5,108.5C 11.5229,86.322 26.3562,73.822 49.5,71C 66.4378,69.3818 83.1045,70.7151 99.5,75C 102.069,75.8984 104.402,77.065 106.5,78.5 Z"/></g>
<g><path style="opacity:0.063" fill="#ededed" d="M 653.5,72.5 C 699.664,71.5012 745.997,71.1679 792.5,71.5C 792.5,72.5 792.5,73.5 792.5,74.5C 746.385,72.5128 700.051,71.8462 653.5,72.5 Z"/></g>
<g><path style="opacity:1" fill="#080808" d="M 259.5,244.5 C 259.821,246.048 260.821,246.715 262.5,246.5C 267.092,247.598 271.759,248.265 276.5,248.5C 276.5,250.5 276.5,252.5 276.5,254.5C 253.167,254.5 229.833,254.5 206.5,254.5C 206.5,252.5 206.5,250.5 206.5,248.5C 212.371,248.466 218.038,247.466 223.5,245.5C 225.5,245.5 226.5,244.5 226.5,242.5C 227.759,238.952 228.593,235.285 229,231.5C 229.667,186.167 229.667,140.833 229,95.5C 229.242,88.1356 226.075,82.9689 219.5,80C 215.21,79.0775 210.877,78.5775 206.5,78.5C 206.5,76.5 206.5,74.5 206.5,72.5C 231.167,72.5 255.833,72.5 280.5,72.5C 280.5,74.5 280.5,76.5 280.5,78.5C 272.833,78.192 265.667,79.8587 259,83.5C 257.725,85.7173 256.725,88.0506 256,90.5C 254.392,135.814 254.059,181.147 255,226.5C 254.74,233.037 256.24,239.037 259.5,244.5 Z"/></g>
<g><path style="opacity:1" fill="#0d0d0d" d="M 546.5,110.5 C 546.427,112.027 547.094,113.027 548.5,113.5C 549.167,113.5 549.5,113.833 549.5,114.5C 549.738,116.404 550.738,117.738 552.5,118.5C 552.427,120.027 553.094,121.027 554.5,121.5C 555.338,121.842 555.672,122.508 555.5,123.5C 555.427,125.027 556.094,126.027 557.5,126.5C 561.802,134.575 564.636,143.242 566,152.5C 570.702,199.95 550.869,232.117 506.5,249C 499.312,251.297 491.978,252.964 484.5,254C 445.835,254.5 407.168,254.667 368.5,254.5C 368.5,252.5 368.5,250.5 368.5,248.5C 375.67,248.523 382.67,247.523 389.5,245.5C 391.833,245.167 393.167,243.833 393.5,241.5C 395.02,236.307 395.853,230.974 396,225.5C 396.667,184.167 396.667,142.833 396,101.5C 396.055,95.2011 394.888,89.2011 392.5,83.5C 392.5,81.5 391.5,80.5 389.5,80.5C 384.893,79.4456 380.227,78.779 375.5,78.5C 375.5,76.5 375.5,74.5 375.5,72.5C 406.168,72.3334 436.835,72.5 467.5,73C 493.591,75.7212 516.924,85.0546 537.5,101C 540.704,104.036 543.704,107.203 546.5,110.5 Z M 502.5,93.5 C 502.973,94.9063 503.973,95.573 505.5,95.5C 506.262,97.2624 507.596,98.2624 509.5,98.5C 514.883,103.614 519.55,109.281 523.5,115.5C 523.932,116.71 524.599,117.71 525.5,118.5C 541.457,150.509 541.457,182.509 525.5,214.5C 524.094,214.973 523.427,215.973 523.5,217.5C 521.177,220.126 518.843,222.793 516.5,225.5C 514.5,226.833 512.833,228.5 511.5,230.5C 510.833,230.5 510.5,230.833 510.5,231.5C 508.973,231.427 507.973,232.094 507.5,233.5C 482.585,248.791 456.252,251.957 428.5,243C 424.908,239.984 422.742,236.151 422,231.5C 421.333,186.833 421.333,142.167 422,97.5C 422.313,84.8542 428.813,78.6875 441.5,79C 463.432,77.4004 483.765,82.2337 502.5,93.5 Z"/></g>
<g><path style="opacity:1" fill="#0e0e0e" d="M 653.5,72.5 C 700.051,71.8462 746.385,72.5128 792.5,74.5C 794.551,84.0916 796.218,93.7582 797.5,103.5C 795.611,104.742 793.611,104.742 791.5,103.5C 787.195,98.8594 782.861,94.1927 778.5,89.5C 777.738,87.7376 776.404,86.7376 774.5,86.5C 766.34,82.46 757.673,80.2933 748.5,80C 737.5,79.3333 726.5,79.3333 715.5,80C 707.528,79.0582 703.695,82.5582 704,90.5C 703.5,111.497 703.333,132.497 703.5,153.5C 716.167,153.5 728.833,153.5 741.5,153.5C 744.187,153.664 746.854,153.497 749.5,153C 750.416,152.722 751.082,152.222 751.5,151.5C 753.868,150.217 756.035,148.55 758,146.5C 760.946,140.83 762.779,134.83 763.5,128.5C 765.833,128.5 768.167,128.5 770.5,128.5C 770.5,149.167 770.5,169.833 770.5,190.5C 768.5,190.5 766.5,190.5 764.5,190.5C 764.737,189.209 764.404,188.209 763.5,187.5C 762.17,182.85 760.837,178.183 759.5,173.5C 759.446,171.368 758.446,170.035 756.5,169.5C 753.569,167.203 750.236,165.703 746.5,165C 732.196,163.73 717.863,163.23 703.5,163.5C 703.333,187.836 703.5,212.169 704,236.5C 704.004,239.792 705.17,242.458 707.5,244.5C 707.821,246.048 708.821,246.715 710.5,246.5C 728.486,247.55 746.486,247.717 764.5,247C 771.371,246.792 778.038,245.625 784.5,243.5C 786.027,243.573 787.027,242.906 787.5,241.5C 789.027,241.573 790.027,240.906 790.5,239.5C 791.5,237.833 792.833,236.5 794.5,235.5C 795.906,235.027 796.573,234.027 796.5,232.5C 796.833,231.5 797.5,230.833 798.5,230.5C 799.906,230.027 800.573,229.027 800.5,227.5C 801.906,227.027 802.573,226.027 802.5,224.5C 803.906,224.027 804.573,223.027 804.5,221.5C 805.11,219.566 806.11,217.899 807.5,216.5C 808.906,216.027 809.573,215.027 809.5,213.5C 811.611,212.258 813.611,212.258 815.5,213.5C 812.56,227.368 809.56,241.201 806.5,255C 754.501,255.5 702.501,255.667 650.5,255.5C 650.5,253.167 650.5,250.833 650.5,248.5C 657.329,248.429 663.996,247.429 670.5,245.5C 672.833,245.167 674.167,243.833 674.5,241.5C 675.949,236.972 676.783,232.305 677,227.5C 677.897,183.835 678.23,140.168 678,96.5C 678.616,88.2049 675.116,82.7049 667.5,80C 662.882,79.006 658.215,78.506 653.5,78.5C 653.5,76.5 653.5,74.5 653.5,72.5 Z"/></g>
<g><path style="opacity:0.851" fill="#838383" d="M 389.5,80.5 C 391.5,80.5 392.5,81.5 392.5,83.5C 391.167,82.8333 390.167,81.8333 389.5,80.5 Z"/></g>
<g><path style="opacity:0.475" fill="#8e8e8e" d="M 76.5,80.5 C 78.0269,80.427 79.0269,81.0937 79.5,82.5C 77.9731,82.573 76.9731,81.9063 76.5,80.5 Z"/></g>
<g><path style="opacity:0.71" fill="#777777" d="M 774.5,86.5 C 776.404,86.7376 777.738,87.7376 778.5,89.5C 776.596,89.2624 775.262,88.2624 774.5,86.5 Z"/></g>
<g><path style="opacity:0.439" fill="#8d8d8d" d="M 106.5,78.5 C 107.495,91.3226 107.829,104.323 107.5,117.5C 104.918,117.975 102.918,117.308 101.5,115.5C 103.042,116.301 104.708,116.634 106.5,116.5C 106.5,103.833 106.5,91.1667 106.5,78.5 Z"/></g>
<g><path style="opacity:0.439" fill="#a0a0a0" d="M 502.5,93.5 C 504.027,93.427 505.027,94.0937 505.5,95.5C 503.973,95.573 502.973,94.9063 502.5,93.5 Z"/></g>
<g><path style="opacity:0.875" fill="#7e7e7e" d="M 505.5,95.5 C 507.404,95.7376 508.738,96.7376 509.5,98.5C 507.596,98.2624 506.262,97.2624 505.5,95.5 Z"/></g>
<g><path style="opacity:0.878" fill="#626262" d="M 791.5,103.5 C 793.611,104.742 795.611,104.742 797.5,103.5C 798.043,103.56 798.376,103.893 798.5,104.5C 797.333,104.833 796.167,105.167 795,105.5C 793.319,105.392 792.152,104.725 791.5,103.5 Z"/></g>
<g><path style="opacity:0.776" fill="#848484" d="M 546.5,110.5 C 547.906,110.973 548.573,111.973 548.5,113.5C 547.094,113.027 546.427,112.027 546.5,110.5 Z"/></g>
<g><path style="opacity:0.945" fill="#7b7b7b" d="M 523.5,115.5 C 525.048,115.821 525.715,116.821 525.5,118.5C 524.599,117.71 523.932,116.71 523.5,115.5 Z"/></g>
<g><path style="opacity:0.902" fill="#7a7a7a" d="M 549.5,114.5 C 551.262,115.262 552.262,116.596 552.5,118.5C 550.738,117.738 549.738,116.404 549.5,114.5 Z"/></g>
<g><path style="opacity:0.416" fill="#9c9c9c" d="M 552.5,118.5 C 553.906,118.973 554.573,119.973 554.5,121.5C 553.094,121.027 552.427,120.027 552.5,118.5 Z"/></g>
<g><path style="opacity:0.576" fill="#848484" d="M 30.5,123.5 C 31.9063,123.973 32.573,124.973 32.5,126.5C 31.0937,126.027 30.427,125.027 30.5,123.5 Z"/></g>
<g><path style="opacity:0.329" fill="#a3a3a3" d="M 555.5,123.5 C 556.906,123.973 557.573,124.973 557.5,126.5C 556.094,126.027 555.427,125.027 555.5,123.5 Z"/></g>
<g><path style="opacity:0.592" fill="#a1a1a1" d="M 15.5,148.5 C 17.0269,148.427 18.0269,149.094 18.5,150.5C 16.9731,150.573 15.9731,149.906 15.5,148.5 Z"/></g>
<g><path style="opacity:0.973" fill="#757575" d="M 751.5,151.5 C 751.082,152.222 750.416,152.722 749.5,153C 746.854,153.497 744.187,153.664 741.5,153.5C 744.656,152.566 747.989,151.899 751.5,151.5 Z"/></g>
<g><path style="opacity:0.533" fill="#878787" d="M 24.5,155.5 C 26.0269,155.427 27.0269,156.094 27.5,157.5C 25.9731,157.573 24.9731,156.906 24.5,155.5 Z"/></g>
<g><path style="opacity:0.4" fill="#9d9d9d" d="M 27.5,157.5 C 29.0269,157.427 30.0269,158.094 30.5,159.5C 28.9731,159.573 27.9731,158.906 27.5,157.5 Z"/></g>
<g><path style="opacity:0.941" fill="#828282" d="M 93.5,161.5 C 95.2303,162.026 96.5637,163.026 97.5,164.5C 95.368,164.446 94.0347,163.446 93.5,161.5 Z"/></g>
<g><path style="opacity:0.965" fill="#7d7d7d" d="M 756.5,169.5 C 758.446,170.035 759.446,171.368 759.5,173.5C 758.026,172.564 757.026,171.23 756.5,169.5 Z"/></g>
<g><path style="opacity:0.8" fill="#808080" d="M 109.5,174.5 C 110.906,174.973 111.573,175.973 111.5,177.5C 110.094,177.027 109.427,176.027 109.5,174.5 Z"/></g>
<g><path style="opacity:0.42" fill="#9a9a9a" d="M 112.5,178.5 C 113.906,178.973 114.573,179.973 114.5,181.5C 113.094,181.027 112.427,180.027 112.5,178.5 Z"/></g>
<g><path style="opacity:0.475" fill="#8d8d8d" d="M 75.5,180.5 C 77.0269,180.427 78.0269,181.094 78.5,182.5C 76.9731,182.573 75.9731,181.906 75.5,180.5 Z"/></g>
<g><path style="opacity:0.753" fill="#545454" d="M 763.5,187.5 C 764.404,188.209 764.737,189.209 764.5,190.5C 766.5,190.5 768.5,190.5 770.5,190.5C 768.393,191.468 766.059,191.802 763.5,191.5C 763.5,190.167 763.5,188.833 763.5,187.5 Z"/></g>
<g><path style="opacity:0.689" fill="#6b6b6b" d="M 816.5,211.5 C 816.5,212.167 816.5,212.833 816.5,213.5C 816.167,213.5 815.833,213.5 815.5,213.5C 813.611,212.258 811.611,212.258 809.5,213.5C 811.279,211.656 813.612,210.99 816.5,211.5 Z"/></g>
<g><path style="opacity:0.482" fill="#8b8b8b" d="M 809.5,213.5 C 809.573,215.027 808.906,216.027 807.5,216.5C 807.427,214.973 808.094,213.973 809.5,213.5 Z"/></g>
<g><path style="opacity:0.576" fill="#808080" d="M 525.5,214.5 C 525.573,216.027 524.906,217.027 523.5,217.5C 523.427,215.973 524.094,214.973 525.5,214.5 Z"/></g>
<g><path style="opacity:0.502" fill="#8c8c8c" d="M 804.5,221.5 C 804.573,223.027 803.906,224.027 802.5,224.5C 802.427,222.973 803.094,221.973 804.5,221.5 Z"/></g>
<g><path style="opacity:0.447" fill="#979797" d="M 15.5,224.5 C 16.9063,224.973 17.573,225.973 17.5,227.5C 16.0937,227.027 15.427,226.027 15.5,224.5 Z"/></g>
<g><path style="opacity:0.49" fill="#909090" d="M 802.5,224.5 C 802.573,226.027 801.906,227.027 800.5,227.5C 800.427,225.973 801.094,224.973 802.5,224.5 Z"/></g>
<g><path style="opacity:0.596" fill="#828282" d="M 17.5,227.5 C 18.9063,227.973 19.573,228.973 19.5,230.5C 18.0937,230.027 17.427,229.027 17.5,227.5 Z"/></g>
<g><path style="opacity:0.925" fill="#565656" d="M 516.5,225.5 C 515.833,228.167 514.167,229.833 511.5,230.5C 512.833,228.5 514.5,226.833 516.5,225.5 Z"/></g>
<g><path style="opacity:0.596" fill="#7e7e7e" d="M 800.5,227.5 C 800.573,229.027 799.906,230.027 798.5,230.5C 798.427,228.973 799.094,227.973 800.5,227.5 Z"/></g>
<g><path style="opacity:0.792" fill="#787878" d="M 510.5,231.5 C 510.027,232.906 509.027,233.573 507.5,233.5C 507.973,232.094 508.973,231.427 510.5,231.5 Z"/></g>
<g><path style="opacity:0.812" fill="#979797" d="M 21.5,232.5 C 23.8333,234.167 25.8333,236.167 27.5,238.5C 24.5,237.5 22.5,235.5 21.5,232.5 Z"/></g>
<g><path style="opacity:0.69" fill="#949494" d="M 796.5,232.5 C 796.573,234.027 795.906,235.027 794.5,235.5C 794.427,233.973 795.094,232.973 796.5,232.5 Z"/></g>
<g><path style="opacity:0.51" fill="#8f8f8f" d="M 93.5,232.5 C 93.573,234.027 92.9063,235.027 91.5,235.5C 91.427,233.973 92.0937,232.973 93.5,232.5 Z"/></g>
<g><path style="opacity:0.773" fill="#7b7b7b" d="M 790.5,239.5 C 790.027,240.906 789.027,241.573 787.5,241.5C 787.973,240.094 788.973,239.427 790.5,239.5 Z"/></g>
<g><path style="opacity:0.737" fill="#868686" d="M 85.5,241.5 C 85.0269,242.906 84.0269,243.573 82.5,243.5C 82.9731,242.094 83.9731,241.427 85.5,241.5 Z"/></g>
<g><path style="opacity:0.769" fill="#828282" d="M 787.5,241.5 C 787.027,242.906 786.027,243.573 784.5,243.5C 784.973,242.094 785.973,241.427 787.5,241.5 Z"/></g>
<g><path style="opacity:0.686" fill="#818181" d="M 393.5,241.5 C 393.167,243.833 391.833,245.167 389.5,245.5C 390.5,243.833 391.833,242.5 393.5,241.5 Z"/></g>
<g><path style="opacity:0.647" fill="#898989" d="M 674.5,241.5 C 674.167,243.833 672.833,245.167 670.5,245.5C 671.5,243.833 672.833,242.5 674.5,241.5 Z"/></g>
<g><path style="opacity:0.765" fill="#7a7a7a" d="M 226.5,242.5 C 226.5,244.5 225.5,245.5 223.5,245.5C 224.167,244.167 225.167,243.167 226.5,242.5 Z"/></g>
<g><path style="opacity:0.937" fill="#7c7c7c" d="M 259.5,244.5 C 260.71,244.932 261.71,245.599 262.5,246.5C 260.821,246.715 259.821,246.048 259.5,244.5 Z"/></g>
<g><path style="opacity:0.922" fill="#767676" d="M 707.5,244.5 C 708.71,244.932 709.71,245.599 710.5,246.5C 708.821,246.715 707.821,246.048 707.5,244.5 Z"/></g>
<g><path style="opacity:0.937" fill="#5a5a5a" d="M 76.5,246.5 C 74.3826,248.655 71.716,249.655 68.5,249.5C 70.936,248.129 73.6027,247.129 76.5,246.5 Z"/></g>
</svg>
