<?xml version="1.0" encoding="UTF-8"?>
<!DOCTYPE svg PUBLIC "-//W3C//DTD SVG 1.1//EN" "http://www.w3.org/Graphics/SVG/1.1/DTD/svg11.dtd">
<svg xmlns="http://www.w3.org/2000/svg" version="1.1" width="820px" height="259px" style="shape-rendering:geometricPrecision; text-rendering:geometricPrecision; image-rendering:optimizeQuality; fill-rule:evenodd; clip-rule:evenodd" xmlns:xlink="http://www.w3.org/1999/xlink">
<g><path style="opacity:0.84" fill="#fefefe" d="M 507.5,-0.5 C 508.833,-0.5 510.167,-0.5 511.5,-0.5C 512.263,0.26791 513.263,0.76791 514.5,1C 525.5,1.66667 536.5,1.66667 547.5,1C 548.737,0.76791 549.737,0.26791 550.5,-0.5C 551.5,-0.5 552.5,-0.5 553.5,-0.5C 553.666,3.84611 553.499,8.17944 553,12.5C 551.64,9.26476 549.473,6.76476 546.5,5C 542.245,4.20385 538.079,4.37052 534,5.5C 532.371,18.7385 532.038,32.0719 533,45.5C 535.052,46.7234 537.219,47.7234 539.5,48.5C 532.167,49.8333 524.833,49.8333 517.5,48.5C 519.465,47.7078 521.465,47.0412 523.5,46.5C 524.192,45.9747 524.692,45.3081 525,44.5C 525.667,31.5 525.667,18.5 525,5.5C 516.805,3.17567 510.305,5.50901 505.5,12.5C 505.013,8.07988 505.68,3.74655 507.5,-0.5 Z"/></g>
<g><path style="opacity:0.834" fill="#fefefe" d="M 226.5,0.5 C 239.167,0.5 251.833,0.5 264.5,0.5C 265.321,3.5535 265.321,6.5535 264.5,9.5C 258.178,2.93296 250.511,0.766294 241.5,3C 240.522,9.41018 240.189,15.9102 240.5,22.5C 244.936,22.7899 249.27,22.2899 253.5,21C 254.747,19.0535 256.08,17.2202 257.5,15.5C 258.833,21.1667 258.833,26.8333 257.5,32.5C 256.1,30.1594 254.434,27.9928 252.5,26C 248.514,25.5012 244.514,25.3345 240.5,25.5C 240.17,32.5316 240.503,39.5316 241.5,46.5C 248.532,47.9198 255.532,47.7532 262.5,46C 264.724,43.035 267.058,40.2016 269.5,37.5C 269.833,38.1667 270.167,38.8333 270.5,39.5C 269.512,42.7816 268.846,46.1149 268.5,49.5C 254.151,49.8326 239.818,49.4993 225.5,48.5C 227.917,47.9278 230.084,46.9278 232,45.5C 233.365,31.9848 233.532,18.4848 232.5,5C 230.374,3.50715 228.374,2.00715 226.5,0.5 Z"/></g>
<g><path style="opacity:0.805" fill="#fefefe" d="M 290.5,0.5 C 297.2,0.169977 303.866,0.503311 310.5,1.5C 305.502,1.99626 303.669,4.66293 305,9.5C 309,19.5 313,29.5 317,39.5C 322.272,29.0246 326.772,18.1912 330.5,7C 329.206,3.87559 326.873,2.04226 323.5,1.5C 329.167,0.166667 334.833,0.166667 340.5,1.5C 337.088,3.74496 334.588,6.74496 333,10.5C 326.652,23.5228 321.152,36.8561 316.5,50.5C 315.325,50.719 314.325,50.3857 313.5,49.5C 307.902,35.8733 302.402,22.2066 297,8.5C 295.633,4.98676 293.466,2.3201 290.5,0.5 Z"/></g>
<g><path style="opacity:0.834" fill="#fefefe" d="M 362.5,0.5 C 375.167,0.5 387.833,0.5 400.5,0.5C 401.321,3.5535 401.321,6.5535 400.5,9.5C 394.178,2.93296 386.511,0.766294 377.5,3C 376.522,9.41018 376.189,15.9102 376.5,22.5C 380.936,22.7899 385.27,22.2899 389.5,21C 390.747,19.0535 392.08,17.2202 393.5,15.5C 394.833,21.1667 394.833,26.8333 393.5,32.5C 392.1,30.1594 390.434,27.9928 388.5,26C 384.514,25.5012 380.514,25.3345 376.5,25.5C 376.17,32.5316 376.503,39.5316 377.5,46.5C 384.532,47.9198 391.532,47.7532 398.5,46C 400.724,43.035 403.058,40.2016 405.5,37.5C 405.833,38.1667 406.167,38.8333 406.5,39.5C 405.512,42.7816 404.846,46.1149 404.5,49.5C 390.151,49.8326 375.818,49.4993 361.5,48.5C 363.917,47.9278 366.084,46.9278 368,45.5C 369.365,31.9848 369.532,18.4848 368.5,5C 366.374,3.50715 364.374,2.00715 362.5,0.5 Z"/></g>
<g><path style="opacity:0.796" fill="#fefefe" d="M 426.5,0.5 C 430.846,0.334316 435.179,0.500982 439.5,1C 451.035,12.8667 462.202,25.0334 473,37.5C 473.667,26.8333 473.667,16.1667 473,5.5C 471.075,3.7868 468.908,2.45347 466.5,1.5C 472.167,0.166667 477.833,0.166667 483.5,1.5C 480.091,2.2672 477.925,4.2672 477,7.5C 476.667,20.5 476.333,33.5 476,46.5C 475.751,47.624 475.251,48.624 474.5,49.5C 461.439,36.9413 449.273,23.6079 438,9.5C 437.333,21.5 437.333,33.5 438,45.5C 439.78,46.5937 441.614,47.5937 443.5,48.5C 438.167,49.8333 432.833,49.8333 427.5,48.5C 429.386,47.5937 431.22,46.5937 433,45.5C 434.586,32.8903 434.92,20.2237 434,7.5C 433.691,6.23409 433.191,5.06743 432.5,4C 429.981,3.41359 427.981,2.24693 426.5,0.5 Z"/></g>
<g><path style="opacity:0.931" fill="#fefefe" d="M 53.5,71.5 C 67.9365,70.8985 82.2698,71.7319 96.5,74C 101.372,75.1029 106.038,76.7696 110.5,79C 111.489,92.0872 111.823,105.254 111.5,118.5C 109.5,118.5 107.5,118.5 105.5,118.5C 101.494,102.291 92.494,89.7908 78.5,81C 64.386,75.622 51.386,77.622 39.5,87C 26.5104,103.795 27.8437,119.462 43.5,134C 46.672,135.752 49.672,137.752 52.5,140C 68.7104,147.623 84.7104,155.623 100.5,164C 124.42,180.101 130.253,201.268 118,227.5C 107.427,244.216 92.2606,254.049 72.5,257C 53.5249,258.702 34.8582,257.036 16.5,252C 11.9014,250.402 9.06805,247.235 8,242.5C 5.77424,229.242 4.27424,215.908 3.5,202.5C 5.60395,202.201 7.60395,202.534 9.5,203.5C 14.4472,218.568 22.7805,231.402 34.5,242C 50.0101,252.812 66.3435,254.145 83.5,246C 99.7926,235.929 105.293,221.762 100,203.5C 95.5548,194.055 88.7215,186.888 79.5,182C 70.0006,177.279 60.334,172.945 50.5,169C 37.0345,163.837 25.5345,156.004 16,145.5C 8.90641,134.508 6.57308,122.508 9,109.5C 11.8708,95.9567 19.3708,85.79 31.5,79C 38.7083,75.7647 46.0416,73.2647 53.5,71.5 Z"/></g>
<g><path style="opacity:0.937" fill="#fefefe" d="M 819.5,212.5 C 819.5,214.5 819.5,216.5 819.5,218.5C 816.069,230.804 813.069,243.304 810.5,256C 758.501,256.5 706.501,256.667 654.5,256.5C 654.5,254.167 654.5,251.833 654.5,249.5C 661.408,249.585 668.075,248.419 674.5,246C 679.416,241.26 681.582,235.427 681,228.5C 681.448,194.833 681.948,161.166 682.5,127.5C 682.589,115.131 682.089,102.798 681,90.5C 680.332,86.5013 678.165,83.668 674.5,82C 668.963,80.2994 663.296,79.4661 657.5,79.5C 657.5,77.1667 657.5,74.8333 657.5,72.5C 703.833,72.5 750.167,72.5 796.5,72.5C 797.986,83.5951 799.986,94.5951 802.5,105.5C 800.167,106.833 797.833,106.833 795.5,105.5C 781.064,84.9028 761.231,76.5695 736,80.5C 730.5,80.6667 725,80.8333 719.5,81C 711.528,80.0582 707.695,83.5582 708,91.5C 707.5,112.497 707.333,133.497 707.5,154.5C 720.171,154.667 732.838,154.5 745.5,154C 751.891,153.983 757.391,151.816 762,147.5C 764.946,141.83 766.779,135.83 767.5,129.5C 769.833,129.5 772.167,129.5 774.5,129.5C 774.5,150.5 774.5,171.5 774.5,192.5C 772.167,192.5 769.833,192.5 767.5,192.5C 767.305,183.52 764.305,175.686 758.5,169C 752.511,166.179 746.178,164.846 739.5,165C 728.839,164.5 718.172,164.333 707.5,164.5C 707.333,188.836 707.5,213.169 708,237.5C 707.83,242.341 709.996,245.508 714.5,247C 737.547,249.231 760.547,248.897 783.5,246C 789.069,243.965 793.903,240.798 798,236.5C 803.662,229.179 808.829,221.512 813.5,213.5C 815.396,212.534 817.396,212.201 819.5,212.5 Z"/></g>
<g><path style="opacity:0.976" fill="#fefefe" d="M 210.5,73.5 C 235.167,73.5 259.833,73.5 284.5,73.5C 284.5,75.5 284.5,77.5 284.5,79.5C 277.113,79.2859 270.113,80.7859 263.5,84C 260.16,89.6715 258.66,95.8381 259,102.5C 258.054,147.521 258.387,192.521 260,237.5C 260.615,242.783 263.449,246.283 268.5,248C 272.466,248.828 276.466,249.328 280.5,249.5C 280.5,251.5 280.5,253.5 280.5,255.5C 257.167,255.5 233.833,255.5 210.5,255.5C 210.5,253.5 210.5,251.5 210.5,249.5C 216.457,249.619 222.124,248.453 227.5,246C 229.894,244.048 231.394,241.548 232,238.5C 233.137,213.867 233.637,189.201 233.5,164.5C 233.637,139.799 233.137,115.133 232,90.5C 230.932,85.7647 228.099,82.5981 223.5,81C 219.21,80.0775 214.877,79.5775 210.5,79.5C 210.5,77.5 210.5,75.5 210.5,73.5 Z"/></g>
<g><path style="opacity:0.959" fill="#fefefe" d="M 379.5,73.5 C 410.168,73.3334 440.835,73.5 471.5,74C 503.151,77.0779 529.984,89.9113 552,112.5C 567.826,132.797 573.826,155.797 570,181.5C 563.422,215.75 543.589,238.584 510.5,250C 503.312,252.297 495.978,253.964 488.5,255C 449.835,255.5 411.168,255.667 372.5,255.5C 372.5,253.5 372.5,251.5 372.5,249.5C 379.748,249.679 386.748,248.513 393.5,246C 398.736,240.623 400.902,234.123 400,226.5C 400.941,181.48 400.607,136.48 399,91.5C 398.588,87.5085 396.754,84.3419 393.5,82C 388.955,80.4577 384.289,79.6243 379.5,79.5C 379.5,77.5 379.5,75.5 379.5,73.5 Z M 445.5,79.5 C 505.567,78.7391 537.567,108.239 541.5,168C 538.864,220.303 511.364,247.469 459,249.5C 449.723,249.655 440.89,247.822 432.5,244C 428.908,240.984 426.742,237.151 426,232.5C 425.333,187.833 425.333,143.167 426,98.5C 426.264,93.038 428.097,88.2047 431.5,84C 436.002,81.5532 440.669,80.0532 445.5,79.5 Z"/></g>
</svg>
